<svg version="1.2" xmlns="http://www.w3.org/2000/svg" viewBox="0 0 999 813" width="999" height="813">
	<style>
		.s0 { fill: #ffffff;stroke: #000000;paint-order:stroke fill markers;stroke-linejoin: round;stroke-width: 6 } 
	</style>
	<path class="s0" d="m993.28 427.75h5.46c-149.31-285.26-478.62-732.25-867.95-125.16l102.99 0.2c332.57-504.8 603.4-133.84 759.5 124.96zm-910.2 19.28v-24.43q0-4.03 4.04-4.03h25.76q1.53 0 2.74 0.87 1.2 0.87 1.2 3.17v44.62q0 1.54-0.48 2.54-0.49 1.01-1.73 1.78-8.46 5.48-19.76 8.42-11.3 2.93-23.89 2.93-19.24-0.01-35.53-9.52-16.3-9.52-25.87-25.81-9.56-16.3-9.56-35.53 0-19.23 9.42-35.34 9.43-16.1 25.63-25.48 16.2-9.37 35.53-9.38 12.11 0.01 21.72 3.17 9.61 3.18 18.56 9.62 1.83 1.44 1.83 3.07-0.01 1.06-0.67 2.12l-15.29 21.93q-1.06 1.64-2.89 1.64-1.35 0-2.6-0.96-9.32-6.82-20.28-6.83c-7.31 0-13.17 1.6-18.51 4.81q-8.03 4.81-12.41 13.12-4.37 8.32-4.37 18.51c0 6.8 1.49 12.82 4.46 18.46q4.48 8.47 12.31 13.41 7.83 4.95 17.64 4.96 6.92 0 12.98-1.83zm49.08-102.06q1.1-1.11 2.83-1.11h27.6q4.03 0 4.03 4.14v100.29h51.15q4.04 0 4.04 4.03v24.62q0 4.03-4.04 4.04h-82.79q-3.94-0.01-3.93-4.04v-128.94q0-1.92 1.11-3.03z"/>
	<path class="s0" d="m286.77 343.86h22.6q4.03 0 5.58 4.14l50.38 128.94q0.48 1.25 0.48 1.92-0.01 2.11-3.08 2.12h-27.51q-4.14-0.01-5.47-4.04l-6.45-18.08h-50.38l-6.24 18.08q-1.25 4.03-5.58 4.04h-27.5q-3.08-0.01-3.08-2.12 0-0.68 0.48-1.92l50.1-128.94q1.53-4.14 5.67-4.14zm25.97 85.29l-14.9-41.92-14.52 41.92zm51.43 27.54q-0.67-1.1-0.66-2.26-0.01-1.63 1.63-3.26l15.96-15.19q1.35-1.35 2.79-1.35 1.93 0 4.33 2.11 7.3 6.26 14.28 10.34 6.97 4.09 14.37 4.09 8.75 0 12.06-3.46 3.32-3.46 3.32-9.43 0-3.55-3.08-6.24-0.77-0.67-1.59-1.29-0.82-0.61-1.68-1.16-0.86-0.55-1.76-1.03-0.91-0.48-1.84-0.9-3.8-1.68-9.09-3.51-22.89-7.88-34.08-18.66-11.21-10.76-11.21-26.53 0-11.25 6.3-19.86 6.3-8.6 17.64-13.36 11.35-4.76 26.05-4.75 8.18 0 16.68 2.3 8.51 2.31 15.86 6.4 7.36 4.09 12.16 9.27 1.92 2.21 1.92 4.14 0 2.11-2.21 4.33l-14.13 15.1q-1.44 1.44-2.98 1.44-2.02 0-4.8-2.5-2.7-2.6-6.21-4.91-3.51-2.31-7.25-3.66-3.85-1.34-9.04-1.34-5.97 0-10.19 2.2-4.23 2.22-4.23 7.02 0 3.27 2.45 5.58 2.45 2.3 6.82 4.18 4.38 1.88 12.17 4.38 15.09 5 24.27 10 9.18 5.01 14.52 12.99 5.34 7.98 5.34 20.18 0 13.27-6.83 23.42-6.83 10.15-18.85 15.67-12.02 5.53-27.02 5.53-13.55-0.01-26.97-6.59-13.42-6.58-23.22-16.78-1.34-1.54-2.02-2.65zm195.96-9.66v-24.43q0-4.03 4.04-4.03h25.77q1.54 0 2.74 0.87 1.2 0.87 1.2 3.17v44.62q0 1.54-0.48 2.54-0.48 1.01-1.73 1.78-8.45 5.48-19.76 8.42-11.3 2.93-23.89 2.93-19.23-0.01-35.53-9.52-16.3-9.52-25.86-25.81-9.57-16.3-9.57-35.53 0-19.23 9.43-35.34 9.42-16.1 25.62-25.48 16.21-9.37 35.53-9.38 12.11 0.01 21.73 3.17 9.6 3.18 18.55 9.62 1.83 1.44 1.83 3.07 0 1.06-0.67 2.12l-15.29 21.93q-1.06 1.64-2.89 1.64-1.34 0-2.59-0.96-9.33-6.82-20.29-6.83c-7.31 0-13.16 1.6-18.51 4.81q-8.03 4.81-12.4 13.12-4.38 8.32-4.38 18.51c0 6.8 1.49 12.82 4.47 18.46q4.47 8.47 12.3 13.41 7.84 4.95 17.64 4.96 6.92 0 12.98-1.83zm54.33-69.95q9.52-16.2 25.72-25.72 16.2-9.52 35.34-9.52 19.14 0 35.34 9.52 16.2 9.52 25.72 25.72 9.52 16.2 9.51 35.34 0.01 19.14-9.51 35.34-9.52 16.2-25.72 25.67-16.2 9.48-35.34 9.48-19.14 0-35.34-9.48-16.2-9.47-25.72-25.67-9.52-16.2-9.52-35.34 0-19.14 9.52-35.34zm30.52 53.8q4.57 8.37 12.59 13.27 8.03 4.9 17.93 4.91c6.59 0 12.67-1.64 18.03-4.91q8.02-4.9 12.55-13.27 4.51-8.37 4.52-18.46-0.01-10.09-4.52-18.51-4.52-8.41-12.55-13.27-8.04-4.86-18.03-4.86c-6.67 0-12.58 1.62-17.93 4.86q-8.04 4.86-12.59 13.27-4.57 8.42-4.57 18.51 0 10.09 4.57 18.46zm174.95 46.06q-1.44 4.03-5.58 4.04h-22.97q-3.95-0.01-5.58-4.04l-49.33-128.94q-0.39-1.15-0.39-1.64 0-2.5 2.98-2.5h29.81q4.03 0 5.48 4.14l28.17 83.17 25.67-83.17q1.25-4.14 5.58-4.14h30.57q1.34 0.01 2.12 0.77 0.77 0.77 0.77 1.92 0 0.68-0.29 1.44l-16.63 45.48 13.17 38.08 29.61-83.56q1.44-4.14 5.58-4.14h30.19q1.44 0.01 2.21 0.67 0.76 0.68 0.77 1.83-0.01 0.48-0.38 1.64l-51.64 128.94q-1.54 4.03-5.68 4.04h-21.63q-4.04-0.01-5.68-4.04l-13.94-35.58-12.98 35.58zm-539.11 128.8q1.63 0 2.69 1.64l15.09 22.2q1.24 1.54 1.25 2.69 0 1.55-2.5 3.27-17.89 12.5-39.71 12.5-19.23 0-35.53-9.51-16.29-9.52-25.81-25.82-9.52-16.29-9.51-35.52-0.01-19.23 9.51-35.39 9.52-16.16 25.81-25.58 16.3-9.42 35.53-9.42 11.72 0 21.83 3.51 10.09 3.51 18.27 9.37 1.72 1.35 1.73 3.17 0 0.96-0.48 1.73l-16.06 22.97q-0.97 1.35-2.6 1.35-1.54 0-3.08-1.25-4.62-3.65-9.23-5.28-4.62-1.64-10.39-1.64-10.09 0-18.22 4.86-8.12 4.85-12.79 13.17-4.66 8.32-4.67 18.41 0 10.09 4.67 18.55 4.66 8.47 12.83 13.37 8.17 4.9 18.17 4.9c6.67 0 12.85-2.21 19.33-6.63q2.31-1.64 3.85-1.64zm30.05-95.72q1.1-1.11 2.84-1.11h27.59q4.03 0 4.04 4.14v100.28h51.14q4.04 0.01 4.04 4.04v24.62q0 4.03-4.04 4.03h-82.78q-3.94 0-3.94-4.03v-128.94q0-1.92 1.11-3.03zm69.84 3.03q-0.57-1.16-0.58-1.92 0-1.06 0.87-1.64 0.87-0.58 2.31-0.58h31.63q1.92 0 3.13 0.96 1.2 0.96 2.36 3.17l21.73 46.25 21.53-46.25q1.15-2.21 2.36-3.17 1.2-0.96 3.13-0.96h32.02q1.44 0 2.31 0.58 0.87 0.58 0.87 1.64 0 0.76-0.58 1.92l-43.85 76.92v52.02q0 4.03-4.03 4.03h-27.6q-4.03 0-4.03-4.03v-51.83l-43.56-77.11zm135-4.13h47.88q17.12 0 32.98 9.27 15.86 9.28 25.62 25.1 9.76 15.81 9.77 34.28c0 12.31-3.08 23.04-9.24 33.55q-9.23 15.77-24.95 25.34-15.73 9.56-34.18 9.56h-47.88q-4.04 0-4.04-4.03v-128.94q0-4.14 4.04-4.13zm75.76 50.57q-4.71-8.28-12.98-13.07-8.27-4.81-18.27-4.81h-12.88v71.72h12.88q10 0.01 18.27-4.8 8.27-4.81 12.98-13.04 4.71-8.21 4.71-17.92c0-6.48-1.57-12.57-4.71-18.08zm59.23-50.57h91.83q4.03 0 4.03 4.14v23.65q0 4.04-4.03 4.04h-60.2v22.78h45.68q4.51 0 4.51 4.23v19.04q0 4.04-4.51 4.04h-45.68v23.55h61.93q4.13 0.01 4.13 4.04v23.56q0 4.03-4.13 4.03h-93.56q-4.03 0-4.03-4.03v-128.94q0-4.14 4.03-4.13zm-490.31 261.87q1.64 0.01 2.69 1.64l15.09 22.21q1.25 1.54 1.25 2.69 0 1.54-2.5 3.27-17.89 12.5-39.7 12.5-19.24 0-35.53-9.53-16.29-9.52-25.81-25.81-9.52-16.3-9.52-35.53 0-19.23 9.52-35.39 9.52-16.16 25.81-25.57 16.29-9.43 35.53-9.42 11.72 0 21.82 3.5 10.1 3.51 18.27 9.38 1.73 1.35 1.73 3.17 0 0.96-0.48 1.73l-16.06 22.97q-0.96 1.35-2.6 1.35-1.54 0-3.07-1.25-4.62-3.65-9.24-5.29-4.61-1.63-10.38-1.63-10.09 0-18.22 4.85-8.13 4.86-12.79 13.17-4.67 8.32-4.67 18.41 0 10.1 4.67 18.56 4.66 8.47 12.83 13.36 8.17 4.91 18.17 4.91c6.66 0 12.85-2.21 19.33-6.64q2.3-1.63 3.84-1.64z"/>
	<path class="s0" d="m183.06 707.19q9.52-16.2 25.72-25.72 16.2-9.52 35.34-9.51 19.14-0.01 35.34 9.51 16.2 9.52 25.72 25.72 9.52 16.2 9.52 35.34-0.01 19.14-9.52 35.34-9.52 16.2-25.72 25.67-16.2 9.48-35.34 9.48-19.14 0-35.34-9.48-16.2-9.47-25.72-25.67-9.52-16.2-9.52-35.34 0-19.14 9.52-35.34zm30.53 53.8q4.57 8.37 12.59 13.27 8.03 4.91 17.93 4.91c6.6 0 12.67-1.64 18.03-4.91q8.02-4.9 12.55-13.27 4.52-8.37 4.52-18.46 0-10.09-4.52-18.51-4.52-8.41-12.55-13.27-8.03-4.85-18.03-4.85c-6.67 0-12.58 1.61-17.93 4.85q-8.03 4.86-12.59 13.27-4.57 8.42-4.57 18.51 0 10.09 4.57 18.46zm112.31-85.92q1.1-1.1 2.84-1.1h27.59q4.03 0 4.04 4.13v100.29h51.14q4.04 0 4.04 4.04v24.61q0 4.04-4.04 4.04h-82.78q-3.94 0-3.94-4.04v-128.94q0-1.92 1.11-3.03zm99.51 0q1.1-1.1 2.83-1.1h27.6q4.03 0 4.03 4.13v100.29h51.15q4.04 0 4.04 4.04v24.61q0 4.04-4.04 4.04h-82.79q-3.94 0-3.93-4.04v-128.94q0-1.92 1.11-3.03zm105.62-1.1h91.82q4.04 0 4.04 4.13v23.66q0 4.03-4.04 4.04h-60.19v22.78h45.67q4.52 0 4.52 4.23v19.04q-0.01 4.03-4.52 4.03h-45.67v23.56h61.92q4.14 0 4.14 4.04v23.55q0 4.04-4.14 4.04h-93.55q-4.04 0-4.04-4.04v-128.94q0-4.14 4.04-4.12zm181.91 103.17v-24.42q0.01-4.04 4.04-4.04h25.78q1.54 0 2.73 0.87 1.2 0.87 1.2 3.18v44.61q0 1.54-0.48 2.55-0.48 1.01-1.73 1.77-8.46 5.49-19.75 8.42-11.31 2.93-23.9 2.93-19.23 0-35.53-9.52-16.29-9.52-25.86-25.81-9.56-16.29-9.56-35.53-0.01-19.23 9.42-35.34 9.42-16.1 25.62-25.48 16.21-9.37 35.53-9.37 12.12 0 21.73 3.16 9.61 3.18 18.56 9.62 1.83 1.44 1.83 3.08-0.01 1.06-0.67 2.12l-15.29 21.92q-1.07 1.64-2.89 1.64-1.35 0-2.6-0.96-9.33-6.82-20.29-6.82c-7.3 0-13.16 1.59-18.51 4.8q-8.03 4.82-12.4 13.12-4.38 8.32-4.38 18.51c0 6.8 1.49 12.82 4.47 18.46q4.47 8.47 12.31 13.41 7.84 4.95 17.64 4.96 6.93 0 12.98-1.84zm55.19-103.17h91.82q4.04 0 4.04 4.13v23.66q0 4.03-4.04 4.04h-60.19v22.78h45.67q4.52 0 4.52 4.23v19.04q0 4.03-4.52 4.03h-45.67v23.56h61.92q4.14 0 4.14 4.04v23.55q0 4.04-4.14 4.04h-93.55q-4.04 0-4.04-4.04v-128.94q0-4.14 4.04-4.12z"/>
</svg>